<svg viewBox="0 0 2852 492" fill="none" xmlns="http://www.w3.org/2000/svg"><path d="M518.538 183.618c-8.887 0-17.267 1.777-25.138 5.332-7.871 3.555-14.727 8.379-20.567 14.473-5.586 6.094-10.029 13.331-13.33 21.71-3.301 8.125-4.952 16.885-4.952 26.28s1.651 18.282 4.952 26.661c3.301 8.125 7.744 15.235 13.33 21.328 5.84 6.094 12.696 10.919 20.567 14.473 7.871 3.555 16.251 5.333 25.138 5.333h2.285v-135.59h-2.285Zm71.603 135.59h1.904c8.887 0 17.267-1.778 25.138-5.333 7.871-3.554 14.727-8.379 20.567-14.473 5.84-6.093 10.41-13.203 13.711-21.328 3.301-8.379 4.952-17.266 4.952-26.661 0-9.395-1.651-18.155-4.952-26.28-3.301-8.379-7.871-15.616-13.711-21.71-5.84-6.094-12.696-10.918-20.567-14.473-7.871-3.555-16.251-5.332-25.138-5.332h-1.904v135.59Zm-69.318 70.841c-21.583-1.523-41.134-6.093-58.654-13.711-17.52-7.871-32.501-17.901-44.943-30.089-12.188-12.441-21.582-26.66-28.184-42.657-6.602-16.25-9.903-33.517-9.903-51.798 0-18.536 3.301-35.929 9.903-52.179 6.602-16.251 15.996-30.47 28.184-42.658 12.442-12.188 27.296-22.09 44.562-29.708 17.52-7.871 37.198-12.695 59.035-14.473V84.973h69.318v27.803c21.583 1.778 41.134 6.602 58.654 14.473 17.52 7.618 32.374 17.52 44.562 29.708 12.442 12.188 21.963 26.407 28.565 42.658 6.602 16.25 9.903 33.643 9.903 52.179 0 18.028-3.428 35.167-10.284 51.417-6.601 15.997-16.123 30.216-28.565 42.658-12.442 12.441-27.423 22.598-44.943 30.469-17.266 7.618-36.563 12.188-57.892 13.711v27.804h-69.318v-27.804ZM853.56 107.825v175.962l137.494-175.962h74.646v287.176h-74.646V219.42L853.56 395.001h-74.65V107.825h74.65Zm347.02 110.833h107.79V107.825h74.65v287.176h-74.65V276.55h-107.79v118.451h-74.65V107.825h74.65v110.833Zm307.75 32.755c0 11.426 2.16 21.963 6.47 31.612 4.32 9.649 10.16 18.028 17.52 25.137 7.37 7.11 15.87 12.696 25.52 16.759 9.91 3.808 20.32 5.713 31.23 5.713 10.92 0 21.21-1.905 30.85-5.713 9.91-4.063 18.54-9.649 25.9-16.759 7.62-7.109 13.59-15.488 17.9-25.137 4.32-9.649 6.48-20.186 6.48-31.612 0-11.426-2.16-21.964-6.48-31.612-4.31-9.649-10.28-18.028-17.9-25.138-7.36-7.109-15.99-12.569-25.9-16.377-9.64-4.063-19.93-6.094-30.85-6.094-10.91 0-21.32 2.031-31.23 6.094-9.65 3.808-18.15 9.268-25.52 16.377-7.36 7.11-13.2 15.489-17.52 25.138-4.31 9.648-6.47 20.186-6.47 31.612Zm-78.08 0c0-21.329 3.94-41.134 11.81-59.416 7.87-18.536 18.79-34.659 32.75-48.37 13.97-13.712 30.6-24.376 49.9-31.993 19.55-7.872 41-11.807 64.36-11.807 23.11 0 44.44 3.935 63.99 11.807 19.55 7.617 36.31 18.281 50.27 31.993 14.22 13.711 25.27 29.834 33.14 48.37 7.87 18.282 11.81 38.087 11.81 59.416 0 21.329-3.94 41.261-11.81 59.796-7.87 18.282-18.92 34.279-33.14 47.99-13.96 13.711-30.72 24.503-50.27 32.374-19.55 7.617-40.88 11.426-63.99 11.426-23.36 0-44.81-3.809-64.36-11.426-19.3-7.871-35.93-18.663-49.9-32.374-13.96-13.711-24.88-29.708-32.75-47.99-7.87-18.535-11.81-38.467-11.81-59.796Zm365.18 143.588V107.825h164.16v63.224h-89.51v223.952h-74.65Zm276.99-155.395h24.76c27.42 0 41.13-11.934 41.13-35.802 0-23.868-13.71-35.802-41.13-35.802h-24.76v71.604Zm0 155.395h-74.65V107.825h118.83c32.25 0 56.88 8.379 73.89 25.137 17.26 16.759 25.9 40.372 25.9 70.842s-8.64 54.084-25.9 70.842c-17.01 16.758-41.64 25.137-73.89 25.137h-44.18v95.218Zm323.64-106.644-33.52-95.598-33.51 95.598h67.03Zm19.8 56.75h-106.64l-17.14 49.894h-79.6l109.31-287.176h81.51l109.31 287.176H2433l-17.14-49.894Zm324.41-174.058h-86.08v127.973c0 7.363-.26 13.584-.76 18.662-.26 5.078-1.02 9.776-2.29 14.092h89.13V171.049ZM2556.3 331.776c9.65 0 15.87-2.793 18.67-8.379 3.04-5.84 4.57-14.219 4.57-25.137V107.825h235.38v223.951h36.18v116.927h-74.27v-53.702h-172.54v53.702h-74.27V331.776h26.28Z" fill="#FCFCFC"/><path d="M132.122 177.352c0-12.483-8.763-27.662-19.573-33.903L19.574 89.77C8.764 83.529 0 88.588 0 101.071v259.92c0 12.483 8.763 27.661 19.574 33.903l92.975 53.679c10.81 6.241 19.573 1.182 19.573-11.301v-259.92Z" fill="#996AFF"/><path d="m37.977 83.234 92.975 53.679c5.047 2.914 9.723 7.991 13.142 13.913 3.42 5.922 5.478 12.511 5.478 18.338v259.921c0 5.84-2.035 9.436-4.78 11.02-2.744 1.584-6.876 1.549-11.933-1.371l-92.975-53.679c-5.047-2.914-9.724-7.991-13.143-13.913-3.42-5.922-5.477-12.511-5.477-18.338V92.884c0-5.84 2.035-9.437 4.779-11.021 2.744-1.584 6.876-1.549 11.934 1.371Z" stroke="#9C9C9C" stroke-width="3.814"/><path d="M265.614 100.785c0-12.482-8.763-27.66-19.574-33.902l-92.975-53.68c-10.81-6.24-19.573-1.181-19.573 11.302v107.358c0 12.482 8.763 27.661 19.573 33.902l92.975 53.68c10.811 6.241 19.574 1.181 19.574-11.301V100.785Z" fill="#FCFCFC"/><path d="M284.971 92.883c0-12.483-8.763-27.661-19.574-33.903L172.422 5.301c-10.81-6.241-19.573-1.181-19.573 11.301v107.359c0 12.482 8.763 27.661 19.573 33.902l92.975 53.679c10.811 6.242 19.574 1.182 19.574-11.301V92.883Z" stroke="#9C9C9C" stroke-width="3.814"/><path d="M194.564 423.433c0 12.482 8.764 27.661 19.574 33.902l39.147 22.602c10.81 6.241 19.574 1.182 19.574-11.301v-45.203c0-12.483-8.764-27.662-19.574-33.903l-39.147-22.602c-10.81-6.241-19.574-1.182-19.574 11.301v45.204Z" fill="#FCFCFC"/><path d="m199.822 376.669 39.147 22.601c5.193 2.998 9.958 8.189 13.427 14.198 3.47 6.008 5.582 12.73 5.582 18.726v45.204c0 6.003-2.099 9.921-5.168 11.693-3.069 1.772-7.511 1.631-12.711-1.371l-39.147-22.602c-5.193-2.998-9.958-8.188-13.427-14.197-3.469-6.009-5.582-12.73-5.582-18.727v-45.203c0-6.004 2.099-9.921 5.168-11.693 3.07-1.772 7.512-1.631 12.711 1.371Z" stroke="#9C9C9C" stroke-width="2.26"/></svg>