<svg width="23" height="20" fill="none" xmlns="http://www.w3.org/2000/svg"><path d="M1.6 8.717c5.948-2.605 9.913-4.323 11.896-5.152C19.163 1.195 20.339.784 21.108.77c.168-.003.545.039.79.238.204.169.261.396.29.556.026.16.06.523.032.807-.306 3.244-1.635 11.115-2.311 14.748-.284 1.537-.848 2.053-1.393 2.103-1.186.11-2.085-.787-3.232-1.543-1.795-1.184-2.808-1.92-4.552-3.075-2.015-1.335-.708-2.069.44-3.267.3-.314 5.52-5.088 5.62-5.521.012-.054.025-.256-.096-.363-.118-.106-.293-.07-.42-.04-.183.04-3.048 1.947-8.607 5.718-.813.562-1.55.836-2.212.822-.727-.016-2.13-.414-3.172-.755C1.01 10.781-.007 10.56.082 9.851c.045-.37.552-.748 1.518-1.134Z" fill="#FCFCFC"/></svg>