<svg width="24" height="24" fill="none" xmlns="http://www.w3.org/2000/svg"><path d="M19.849 4.146a10.93 10.93 0 0 0-3.577-2.392 10.976 10.976 0 0 0-4.227-.831C5.965.923 1.011 5.853 1.011 11.9c0 1.939.512 3.822 1.47 5.483L.923 23.077l5.845-1.529a11.079 11.079 0 0 0 5.276 1.34c6.079 0 11.033-4.929 11.033-10.977a10.88 10.88 0 0 0-3.229-7.765Zm-7.805 16.881a9.232 9.232 0 0 1-4.675-1.273l-.334-.2-3.473.909.924-3.368-.223-.343A9.12 9.12 0 0 1 2.86 11.9c0-5.029 4.12-9.127 9.173-9.127a9.1 9.1 0 0 1 6.48 2.68 9.06 9.06 0 0 1 1.992 2.962 9.024 9.024 0 0 1 .69 3.496c.023 5.03-4.096 9.117-9.15 9.117Zm5.032-6.823c-.278-.133-1.636-.797-1.88-.897-.257-.089-.435-.133-.624.133-.19.277-.713.897-.869 1.074-.156.189-.322.21-.6.067-.28-.133-1.17-.432-2.216-1.363-.824-.73-1.37-1.628-1.537-1.905-.155-.277-.022-.42.123-.565.122-.122.278-.321.412-.476.133-.155.19-.277.278-.454.09-.189.045-.344-.022-.477a90.921 90.921 0 0 1-.846-2.038c-.223-.531-.457-.465-.624-.476h-.534a1 1 0 0 0-.735.343c-.245.277-.957.942-.957 2.293 0 1.352.99 2.659 1.124 2.836.134.188 1.948 2.957 4.71 4.143a13.52 13.52 0 0 0 1.569.576c.657.21 1.258.177 1.737.11.534-.077 1.636-.664 1.859-1.307.234-.642.234-1.185.156-1.307-.078-.122-.245-.177-.524-.31Z" fill="#FCFCFC"/></svg>