<svg width="24" height="24" viewBox="0 0 24 24" fill="none" xmlns="http://www.w3.org/2000/svg">
<path d="M13.5 1.5C13.5 0.671573 12.8284 0 12 0C11.1716 0 10.5 0.671573 10.5 1.5H13.5ZM10.9393 23.5607C11.5251 24.1464 12.4749 24.1464 13.0607 23.5607L22.6066 14.0147C23.1924 13.4289 23.1924 12.4792 22.6066 11.8934C22.0208 11.3076 21.0711 11.3076 20.4853 11.8934L12 20.3787L3.51472 11.8934C2.92893 11.3076 1.97919 11.3076 1.3934 11.8934C0.807611 12.4792 0.807611 13.4289 1.3934 14.0147L10.9393 23.5607ZM10.5 1.5L10.5 22.5H13.5L13.5 1.5H10.5Z" fill="#FCFCFC"/>
</svg>
