<svg width="26" height="22" viewBox="0 0 26 22" fill="none" xmlns="http://www.w3.org/2000/svg">
<path d="M6.33333 7.04426L11.3333 11.0003C11.8063 11.3748 12.3941 11.5789 13 11.5789C13.6059 11.5789 14.1937 11.3748 14.6667 11.0003L19.6667 7.04426M25 17.5937V4.40689C25 3.70742 24.719 3.0366 24.219 2.542C23.7189 2.0474 23.0406 1.76953 22.3333 1.76953H3.66667C2.95942 1.76953 2.28115 2.0474 1.78105 2.542C1.28095 3.0366 1 3.70742 1 4.40689V17.5937C1 18.2932 1.28095 18.964 1.78105 19.4586C2.28115 19.9532 2.95942 20.2311 3.66667 20.2311H22.3333C23.0406 20.2311 23.7189 19.9532 24.219 19.4586C24.719 18.964 25 18.2932 25 17.5937Z" stroke="#FCFCFC" stroke-width="2" stroke-linecap="round" stroke-linejoin="round"/>
</svg>
