<svg viewBox="0 0 2852 492" fill="none" xmlns="http://www.w3.org/2000/svg">
<path d="M518.538 183.618C509.651 183.618 501.271 185.395 493.4 188.95C485.529 192.505 478.673 197.329 472.833 203.423C467.247 209.517 462.804 216.754 459.503 225.133C456.202 233.258 454.551 242.018 454.551 251.413C454.551 260.808 456.202 269.695 459.503 278.074C462.804 286.199 467.247 293.309 472.833 299.402C478.673 305.496 485.529 310.321 493.4 313.875C501.271 317.43 509.651 319.208 518.538 319.208H520.823V183.618H518.538ZM590.141 319.208H592.045C600.932 319.208 609.312 317.43 617.183 313.875C625.054 310.321 631.91 305.496 637.75 299.402C643.59 293.309 648.16 286.199 651.461 278.074C654.762 269.695 656.413 260.808 656.413 251.413C656.413 242.018 654.762 233.258 651.461 225.133C648.16 216.754 643.59 209.517 637.75 203.423C631.91 197.329 625.054 192.505 617.183 188.95C609.312 185.395 600.932 183.618 592.045 183.618H590.141V319.208ZM520.823 390.049C499.24 388.526 479.689 383.956 462.169 376.338C444.649 368.467 429.668 358.437 417.226 346.249C405.038 333.808 395.644 319.589 389.042 303.592C382.44 287.342 379.139 270.075 379.139 251.794C379.139 233.258 382.44 215.865 389.042 199.615C395.644 183.364 405.038 169.145 417.226 156.957C429.668 144.769 444.522 134.867 461.788 127.249C479.308 119.378 498.986 114.554 520.823 112.776V84.9727H590.141V112.776C611.724 114.554 631.275 119.378 648.795 127.249C666.315 134.867 681.169 144.769 693.357 156.957C705.799 169.145 715.32 183.364 721.922 199.615C728.524 215.865 731.825 233.258 731.825 251.794C731.825 269.822 728.397 286.961 721.541 303.211C714.94 319.208 705.418 333.427 692.976 345.869C680.534 358.31 665.553 368.467 648.033 376.338C630.767 383.956 611.47 388.526 590.141 390.049V417.853H520.823V390.049Z" fill="#FCFCFC"/>
<path d="M853.56 107.825V283.787L991.054 107.825H1065.7V395.001H991.054V219.42L853.56 395.001H778.91V107.825H853.56Z" fill="#FCFCFC"/>
<path d="M1200.58 218.658H1308.37V107.825H1383.02V395.001H1308.37V276.55H1200.58V395.001H1125.93V107.825H1200.58V218.658Z" fill="#FCFCFC"/>
<path d="M1508.33 251.413C1508.33 262.839 1510.49 273.376 1514.8 283.025C1519.12 292.674 1524.96 301.053 1532.32 308.162C1539.69 315.272 1548.19 320.858 1557.84 324.921C1567.75 328.729 1578.16 330.634 1589.07 330.634C1599.99 330.634 1610.28 328.729 1619.92 324.921C1629.83 320.858 1638.46 315.272 1645.82 308.162C1653.44 301.053 1659.41 292.674 1663.72 283.025C1668.04 273.376 1670.2 262.839 1670.2 251.413C1670.2 239.987 1668.04 229.449 1663.72 219.801C1659.41 210.152 1653.44 201.773 1645.82 194.663C1638.46 187.554 1629.83 182.094 1619.92 178.286C1610.28 174.223 1599.99 172.192 1589.07 172.192C1578.16 172.192 1567.75 174.223 1557.84 178.286C1548.19 182.094 1539.69 187.554 1532.32 194.663C1524.96 201.773 1519.12 210.152 1514.8 219.801C1510.49 229.449 1508.33 239.987 1508.33 251.413ZM1430.25 251.413C1430.25 230.084 1434.19 210.279 1442.06 191.997C1449.93 173.461 1460.85 157.338 1474.81 143.627C1488.78 129.915 1505.41 119.251 1524.71 111.634C1544.26 103.762 1565.71 99.8266 1589.07 99.8266C1612.18 99.8266 1633.51 103.762 1653.06 111.634C1672.61 119.251 1689.37 129.915 1703.33 143.627C1717.55 157.338 1728.6 173.461 1736.47 191.997C1744.34 210.279 1748.28 230.084 1748.28 251.413C1748.28 272.742 1744.34 292.674 1736.47 311.209C1728.6 329.491 1717.55 345.488 1703.33 359.199C1689.37 372.91 1672.61 383.702 1653.06 391.573C1633.51 399.19 1612.18 402.999 1589.07 402.999C1565.71 402.999 1544.26 399.19 1524.71 391.573C1505.41 383.702 1488.78 372.91 1474.81 359.199C1460.85 345.488 1449.93 329.491 1442.06 311.209C1434.19 292.674 1430.25 272.742 1430.25 251.413Z" fill="#FCFCFC"/>
<path d="M1795.43 395.001V107.825H1959.59V171.049H1870.08V395.001H1795.43Z" fill="#FCFCFC"/>
<path d="M2072.42 239.606H2097.18C2124.6 239.606 2138.31 227.672 2138.31 203.804C2138.31 179.936 2124.6 168.002 2097.18 168.002H2072.42V239.606ZM2072.42 395.001H1997.77V107.825H2116.6C2148.85 107.825 2173.48 116.204 2190.49 132.962C2207.75 149.721 2216.39 173.334 2216.39 203.804C2216.39 234.274 2207.75 257.888 2190.49 274.646C2173.48 291.404 2148.85 299.783 2116.6 299.783H2072.42V395.001Z" fill="#FCFCFC"/>
<path d="M2396.06 288.357L2362.54 192.759L2329.03 288.357H2396.06ZM2415.86 345.107H2309.22L2292.08 395.001H2212.48L2321.79 107.825H2403.3L2512.61 395.001H2433L2415.86 345.107Z" fill="#FCFCFC"/>
<path d="M2740.27 171.049H2654.19V299.022C2654.19 306.385 2653.93 312.606 2653.43 317.684C2653.17 322.762 2652.41 327.46 2651.14 331.776H2740.27V171.049ZM2556.3 331.776C2565.95 331.776 2572.17 328.983 2574.97 323.397C2578.01 317.557 2579.54 309.178 2579.54 298.26V107.825H2814.92V331.776H2851.1V448.703H2776.83V395.001H2604.29V448.703H2530.02V331.776H2556.3Z" fill="#FCFCFC"/>
<path d="M132.122 177.352C132.122 164.869 123.359 149.69 112.549 143.449L19.5737 89.77C8.76343 83.5287 6.00117e-06 88.5883 5.72618e-06 101.071L0 360.991C-2.74998e-07 373.474 8.76344 388.652 19.5737 394.894L112.549 448.573C123.359 454.814 132.122 449.755 132.122 437.272L132.122 177.352Z" fill="#996AFF"/>
<path d="M37.9766 83.234L130.952 136.913C135.999 139.827 140.675 144.904 144.094 150.826C147.514 156.748 149.572 163.337 149.572 169.164L149.572 429.085C149.572 434.925 147.537 438.521 144.792 440.105C142.048 441.689 137.916 441.654 132.859 438.734L39.8836 385.055C34.8366 382.141 30.1601 377.064 26.741 371.142C23.3219 365.22 21.2635 358.631 21.2635 352.804L21.2635 92.8833C21.2635 87.0432 23.2988 83.4473 26.043 81.863C28.7871 80.2787 32.9189 80.314 37.9766 83.234Z" stroke="#9C9C9C" stroke-width="3.81405"/>
<path d="M265.614 100.785C265.614 88.3028 256.851 73.1241 246.04 66.8828L153.065 13.2036C142.255 6.96228 133.492 12.0219 133.492 24.5045L133.492 131.863C133.492 144.345 142.255 159.524 153.065 165.765L246.04 219.445C256.851 225.686 265.614 220.626 265.614 208.144V100.785Z" fill="#FCFCFC"/>
<path d="M284.971 92.883C284.971 80.4004 276.208 65.2217 265.397 58.9804L172.422 5.30124C161.612 -0.940065 152.849 4.11952 152.849 16.6021L152.849 123.961C152.849 136.443 161.612 151.622 172.422 157.863L265.397 211.542C276.208 217.784 284.971 212.724 284.971 200.241V92.883Z" stroke="#9C9C9C" stroke-width="3.81405"/>
<path d="M194.564 423.433C194.564 435.915 203.328 451.094 214.138 457.335L253.285 479.937C264.095 486.178 272.859 481.119 272.859 468.636L272.859 423.433C272.859 410.95 264.095 395.771 253.285 389.53L214.138 366.928C203.328 360.687 194.564 365.746 194.564 378.229L194.564 423.433Z" fill="#FCFCFC"/>
<path d="M199.822 376.669L238.969 399.27C244.162 402.268 248.927 407.459 252.396 413.468C255.866 419.476 257.978 426.198 257.978 432.194L257.978 477.398C257.978 483.401 255.879 487.319 252.81 489.091C249.741 490.863 245.299 490.722 240.099 487.72L200.952 465.118C195.759 462.12 190.994 456.93 187.525 450.921C184.056 444.912 181.943 438.191 181.943 432.194L181.943 386.991C181.943 380.987 184.042 377.07 187.111 375.298C190.181 373.526 194.623 373.667 199.822 376.669Z" stroke="#9C9C9C" stroke-width="2.26018"/>
</svg>
