<svg width="23" height="20" viewBox="0 0 23 20" fill="none" xmlns="http://www.w3.org/2000/svg">
<path d="M1.59964 8.71719C7.54764 6.11208 11.513 4.39447 13.4956 3.56466C19.1631 1.19513 20.3393 0.783595 21.1075 0.769653C21.2765 0.766928 21.6526 0.808915 21.8981 1.00843C22.1021 1.1767 22.1594 1.40426 22.1881 1.56404C22.2136 1.72365 22.2487 2.08743 22.22 2.3714C21.914 5.61497 20.5848 13.4861 19.909 17.1191C19.6253 18.6562 19.0611 19.1716 18.5161 19.2219C17.3303 19.3315 16.4314 18.4347 15.2839 17.6787C13.4893 16.495 12.4756 15.7585 10.732 14.6037C8.71748 13.2691 10.0244 12.5354 11.1719 11.3367C11.4715 11.0229 16.6928 6.24894 16.7916 5.81593C16.8043 5.76176 16.8171 5.55984 16.696 5.45343C16.578 5.3467 16.4027 5.38324 16.2752 5.41209C16.0935 5.45311 13.2279 7.35951 7.66877 11.131C6.85594 11.6931 6.11961 11.9672 5.4566 11.9527C4.72983 11.937 3.32731 11.5386 2.28497 11.1983C1.00994 10.7806 -0.00688913 10.5598 0.0823627 9.85052C0.126989 9.48129 0.633812 9.10341 1.59964 8.71719Z" fill="#FCFCFC"/>
</svg>
