<svg width="24" height="24" viewBox="0 0 24 24" fill="none" xmlns="http://www.w3.org/2000/svg">
<path d="M19.8485 4.14629C18.8279 3.12049 17.6122 2.30716 16.2723 1.75374C14.9324 1.20032 13.4953 0.917889 12.0445 0.922918C5.96616 0.922918 1.01216 5.85213 1.01216 11.9001C1.01216 13.8386 1.52426 15.7216 2.48166 17.3832L0.923096 23.0767L6.7677 21.5481C8.38193 22.4232 10.1965 22.8884 12.0445 22.8884C18.1229 22.8884 23.0769 17.9592 23.0769 11.9112C23.0769 8.97582 21.9303 6.21767 19.8485 4.14629ZM12.0445 21.0275C10.3969 21.0275 8.7827 20.5844 7.36886 19.7536L7.03488 19.5542L3.56152 20.4626L4.48552 17.0952L4.26287 16.7518C3.34749 15.2974 2.86143 13.6162 2.86017 11.9001C2.86017 6.87121 6.97922 2.77276 12.0334 2.77276C14.4826 2.77276 16.787 3.72537 18.5126 5.45337C19.367 6.2996 20.0441 7.30616 20.5046 8.41469C20.9652 9.52322 21.2 10.7117 21.1955 11.9112C21.2178 16.9401 17.0987 21.0275 12.0445 21.0275ZM17.0765 14.2041C16.7982 14.0712 15.44 13.4066 15.1951 13.3069C14.939 13.2183 14.7609 13.174 14.5716 13.4398C14.3824 13.7167 13.8592 14.337 13.7033 14.5143C13.5474 14.7026 13.3805 14.7247 13.1021 14.5807C12.8238 14.4478 11.9332 14.1487 10.8868 13.2183C10.0629 12.4872 9.51745 11.59 9.35046 11.313C9.19461 11.0361 9.3282 10.8921 9.47292 10.7481C9.59538 10.6263 9.75124 10.4269 9.88483 10.2718C10.0184 10.1167 10.0741 9.99489 10.1631 9.81766C10.2522 9.62935 10.2077 9.47428 10.1409 9.34136C10.0741 9.20843 9.51745 7.85705 9.2948 7.30321C9.07215 6.77152 8.83836 6.83798 8.67138 6.8269H8.13701C7.94776 6.8269 7.65831 6.89336 7.40226 7.17028C7.15734 7.44721 6.44486 8.11182 6.44486 9.4632C6.44486 10.8146 7.43566 12.1217 7.56925 12.2989C7.70284 12.4872 9.51745 15.2564 12.2783 16.4416C12.9352 16.7296 13.4473 16.8958 13.848 17.0176C14.5048 17.2281 15.106 17.1949 15.5847 17.1284C16.1191 17.0509 17.2212 16.4638 17.4439 15.8213C17.6776 15.1789 17.6776 14.6361 17.5997 14.5143C17.5218 14.3924 17.3548 14.337 17.0765 14.2041Z" fill="#FCFCFC"/>
</svg>
